<svg xmlns="http://www.w3.org/2000/svg" width="512" height="512" viewBox="0 0 512 512" fill="none">
  <title>Financeiro</title>
  <rect width="512" height="512" rx="112" fill="#0A0A0A"/>
  <rect x="80" y="80" width="352" height="352" rx="88" stroke="#FAFAF7" stroke-opacity="0.12" stroke-width="2"/>
  <path d="M142 352H370" stroke="#FAFAF7" stroke-opacity="0.38" stroke-width="18" stroke-linecap="round"/>
  <rect x="160" y="274" width="42" height="78" rx="14" fill="#FAFAF7"/>
  <rect x="236" y="224" width="42" height="128" rx="14" fill="#FAFAF7"/>
  <rect x="312" y="174" width="42" height="178" rx="14" fill="#FAFAF7"/>
  <path d="M162 238L224 206L276 218L348 150" stroke="#FAFAF7" stroke-width="20" stroke-linecap="round" stroke-linejoin="round"/>
  <circle cx="162" cy="238" r="12" fill="#0A0A0A" stroke="#FAFAF7" stroke-width="10"/>
  <circle cx="224" cy="206" r="12" fill="#0A0A0A" stroke="#FAFAF7" stroke-width="10"/>
  <circle cx="276" cy="218" r="12" fill="#0A0A0A" stroke="#FAFAF7" stroke-width="10"/>
  <circle cx="348" cy="150" r="12" fill="#0A0A0A" stroke="#FAFAF7" stroke-width="10"/>
  <path d="M348 150V196" stroke="#FAFAF7" stroke-opacity="0.22" stroke-width="14" stroke-linecap="round"/>
  <path d="M348 150H302" stroke="#FAFAF7" stroke-opacity="0.22" stroke-width="14" stroke-linecap="round"/>
  <circle cx="128" cy="128" r="8" fill="#FAFAF7" fill-opacity="0.42"/>
  <circle cx="384" cy="128" r="8" fill="#FAFAF7" fill-opacity="0.42"/>
  <circle cx="128" cy="384" r="8" fill="#FAFAF7" fill-opacity="0.42"/>
  <circle cx="384" cy="384" r="8" fill="#FAFAF7" fill-opacity="0.42"/>
</svg>
